<svg id="Layer_1" enable-background="new 0 0 512 512" height="512" viewBox="0 0 512 512" width="512" xmlns="http://www.w3.org/2000/svg"><g><g><path clip-rule="evenodd" d="m45.576 88.661c47.605-24.151 131.392-39.483 210.704-39.483 79.282 0 162.539 15.332 210.144 39.483 8.567-7.038 13.248-14.602 13.248-22.516 0-36.533-100.126-66.145-223.687-66.145-123.531 0-223.657 29.612-223.657 66.145 0 7.914 4.681 15.478 13.248 22.516z" fill="#f5a96c" fill-rule="evenodd"/></g><g><path clip-rule="evenodd" d="m82.671 161.26v-39.424c0-3.621 3.003-6.6 6.653-6.6h16.663c-26.879-7.184-47.84-16.295-60.411-26.575-8.567-7.038-13.248-14.602-13.248-22.516v60.918c0 12.966 18.871 24.881 50.343 34.197z" fill="#fde588" fill-rule="evenodd"/></g><g><path clip-rule="evenodd" d="m429.329 161.26c31.472-9.316 50.343-21.231 50.343-34.197v-60.918c0 7.914-4.681 15.478-13.248 22.516-12.571 10.279-33.532 19.391-60.411 26.575h16.663c3.651 0 6.653 2.979 6.653 6.6z" fill="#fde588" fill-rule="evenodd"/></g><g><path clip-rule="evenodd" d="m417.347 474.638c31.148-15.799 33.827-25.932 30.029-62.027l-24.7-234.881h-88.291-156.77-88.291l-24.7 234.881c-3.798 36.27-1.119 46.229 30.029 62.027 50.225 25.494 105.779 37.701 161.332 37.351 55.583.35 111.137-11.856 161.362-37.351z" fill="#eff6ff" fill-rule="evenodd"/></g><g><path clip-rule="evenodd" d="m177.615 177.73h156.769 88.291c3.651 0 6.653-2.979 6.653-6.6v-9.871-39.424c0-3.621-3.003-6.6-6.653-6.6h-16.663-300.025-16.663c-3.651 0-6.653 2.979-6.653 6.6v39.424 9.871c0 3.621 3.003 6.6 6.653 6.6z" fill="#7e707d" fill-rule="evenodd"/></g><g><path d="m202.456 367.918c-1.572 0-3.159-.478-4.53-1.472-3.454-2.505-4.224-7.337-1.718-10.791l58.351-80.455c2.506-3.456 7.337-4.223 10.791-1.718 3.455 2.505 4.223 7.337 1.718 10.791l-58.351 80.455c-1.511 2.083-3.869 3.19-6.261 3.19z" fill="#a1d4ff"/></g><g><path d="m222.27 418.556c-1.573 0-3.16-.478-4.531-1.473-3.454-2.506-4.222-7.337-1.717-10.791l102.1-140.73c2.506-3.454 7.336-4.222 10.791-1.717 3.454 2.506 4.222 7.337 1.716 10.791l-102.099 140.731c-1.511 2.083-3.87 3.189-6.26 3.189z" fill="#a1d4ff"/></g><g><path clip-rule="evenodd" d="m447.376 412.611-24.7-234.881h-44.16l24.73 234.881c3.768 36.095 1.119 46.229-30.029 62.027-43.571 22.107-91.176 34.226-139.282 36.825 7.331.409 14.691.584 22.051.526 55.583.35 111.137-11.856 161.362-37.351 31.147-15.799 33.826-25.932 30.028-62.027z" fill="#d9eeff" fill-rule="evenodd"/></g><g><path clip-rule="evenodd" d="m422.676 177.73c3.651 0 6.653-2.979 6.653-6.6v-9.871-39.424c0-3.621-3.003-6.6-6.653-6.6-18.165 0-36.329 0-54.464 0 3.621.029 6.595 2.979 6.595 6.6v49.295c0 3.621-3.003 6.6-6.653 6.6z" fill="#6a5c69" fill-rule="evenodd"/></g><g><path d="m117.94 154.209h-6.212c-4.267 0-7.726-3.459-7.726-7.726s3.459-7.726 7.726-7.726h6.212c4.267 0 7.726 3.459 7.726 7.726s-3.459 7.726-7.726 7.726z" fill="#eff6ff"/></g><g><path d="m400.272 154.209h-6.212c-4.268 0-7.726-3.459-7.726-7.726s3.459-7.726 7.726-7.726h6.212c4.268 0 7.726 3.459 7.726 7.726s-3.459 7.726-7.726 7.726z" fill="#eff6ff"/></g></g></svg>