<svg id="Layer_1" enable-background="new 0 0 512.008 512.008" height="512" viewBox="0 0 512.008 512.008" width="512" xmlns="http://www.w3.org/2000/svg"><g><g><path clip-rule="evenodd" d="m80.963 265.508c.112 14.803 4.374 30.111 11.663 45.167 28.765 59.157 104.965 113.8 164.962 113.295 59.351-.505 133.87-54.811 162.41-113.547 7.626-15.756 11.971-31.793 11.831-47.213-.308-36.083-25.12-78.698-59.183-112.482-34.848-34.541-79.397-59.858-117.441-59.521-37.624.308-81.359 25.653-115.619 60.026-34.204 34.371-58.959 77.8-58.623 114.275z" fill="#eff6ff" fill-rule="evenodd"/></g><g><path d="m147.499 329.978c-.137 0-.273-.003-.41-.011-30.34-1.636-57.051-9.627-79.39-23.752-19.672-12.438-35.589-29.324-47.309-50.189-11.886-21.161-18.861-45.437-20.17-70.204-1.211-22.903 2.597-43.837 10.721-58.945 14.481-26.953 41.813-41.985 69.654-38.288 36.14 4.798 64.298 39.426 77.256 95.004.94 4.034-1.566 8.067-5.601 9.007-4.031.938-8.066-1.567-9.007-5.601-11.462-49.16-35.016-79.609-64.623-83.541-21.583-2.867-42.966 9.113-54.468 30.52-6.742 12.54-10.006 31.147-8.954 51.052.829 15.674 4.671 39.44 18.27 63.65 15.893 28.292 48.645 62.762 114.427 66.308 4.137.223 7.309 3.757 7.086 7.893-.216 3.999-3.525 7.097-7.482 7.097z" fill="#d3cfd2"/></g><g><path clip-rule="evenodd" d="m349.965 255.583c-.056 64.175-77.154 139.004-146.766 156.303 18.447 7.794 37.091 12.224 54.389 12.084 59.351-.505 133.87-54.811 162.41-113.547 7.626-15.756 11.971-31.793 11.831-47.213-.308-36.083-25.12-78.698-59.183-112.482-34.848-34.541-79.397-59.858-117.441-59.521-9.42.056-19.232 1.71-29.185 4.682 25.092 11.775 49.931 30.588 70.706 52.54 30.979 32.69 52.931 72.418 53.24 106.37-.001.252-.001.504-.001.784z" fill="#d9eeff" fill-rule="evenodd"/></g><g><path d="m289.661 348.959h-68.912c-4.143 0-7.5-3.358-7.5-7.5s3.357-7.5 7.5-7.5h68.912c4.143 0 7.5 3.358 7.5 7.5s-3.358 7.5-7.5 7.5zm0-30.784h-68.912c-4.143 0-7.5-3.358-7.5-7.5s3.357-7.5 7.5-7.5h68.912c4.143 0 7.5 3.358 7.5 7.5s-3.358 7.5-7.5 7.5z" fill="#7e707d"/></g><g><path d="m252.927 268.204c-40.981 0-80.753-2.864-119.895-8.592-4.099-.6-6.935-4.408-6.335-8.507s4.405-6.931 8.507-6.335c76.864 11.248 156.287 11.243 242.81-.017 4.097-.529 7.87 2.361 8.405 6.47.534 4.107-2.362 7.871-6.47 8.405-43.93 5.717-86.08 8.576-127.022 8.576z" fill="#7e707d"/></g><path d="m304.435 140.928h-17.394c-12.42-11.593-24.93-17.306-37.154-16.936-11.554.334-22.751 6.029-33.323 16.936h-17.15c-4.143 0-7.5 3.358-7.5 7.5s3.357 7.5 7.5 7.5h20.41c2.13 0 4.158-.905 5.581-2.49 8.516-9.486 16.666-14.214 24.916-14.453 8.724-.252 18.289 4.715 28.422 14.767 1.389 1.377 3.327 2.175 5.282 2.175h20.41c4.143 0 7.5-3.358 7.5-7.5s-3.357-7.499-7.5-7.499z" fill="#7e707d"/><g><path d="m142.143 197.171c-2.712 0-5.33-1.476-6.664-4.05-1.906-3.677-.471-8.204 3.207-10.11l16.821-8.72c3.674-1.904 8.203-.471 10.109 3.207 1.906 3.677.471 8.204-3.207 10.11l-16.821 8.72c-1.102.572-2.282.843-3.445.843z" fill="#7e707d"/></g><g><path d="m148.464 336.68c-3.661 0-6.864-2.684-7.411-6.414l-2.748-18.756c-.601-4.099 2.235-7.908 6.334-8.508 4.09-.595 7.906 2.234 8.508 6.333l2.748 18.756c.601 4.099-2.235 7.908-6.334 8.508-.369.054-.735.081-1.097.081z" fill="#7e707d"/></g><g><path d="m364.508 329.978c-3.957 0-7.267-3.098-7.482-7.096-.223-4.136 2.949-7.67 7.086-7.893 65.783-3.546 98.535-38.017 114.428-66.31 13.599-24.21 17.44-47.976 18.269-63.649 1.052-19.905-2.212-38.512-8.953-51.05-11.503-21.406-32.89-33.389-54.468-30.522-29.612 3.928-53.178 34.378-64.652 83.542-.941 4.034-4.971 6.539-9.009 5.599-4.033-.941-6.54-4.975-5.599-9.008 12.973-55.581 41.143-90.208 77.288-95.003 27.828-3.694 55.169 11.339 69.651 38.291 8.123 15.106 11.931 36.04 10.721 58.943-1.31 24.766-8.283 49.042-20.17 70.204-11.72 20.865-27.637 37.751-47.309 50.189-22.34 14.125-49.05 22.117-79.391 23.752-.136.008-.274.011-.41.011z" fill="#d3cfd2"/></g><g><path d="m369.837 197.171c-1.163 0-2.343-.271-3.445-.843l-16.821-8.72c-3.678-1.906-5.113-6.433-3.207-10.11s6.437-5.111 10.109-3.207l16.821 8.72c3.678 1.906 5.113 6.433 3.207 10.11-1.334 2.574-3.952 4.05-6.664 4.05z" fill="#7e707d"/></g><g><path d="m363.544 336.68c-.358 0-.721-.026-1.086-.079-4.1-.594-6.94-4.399-6.347-8.499l2.72-18.756c.595-4.1 4.396-6.937 8.499-6.346 4.1.594 6.94 4.399 6.347 8.499l-2.72 18.756c-.542 3.734-3.748 6.425-7.413 6.425z" fill="#7e707d"/></g></g></svg>