<svg id="Layer_1" enable-background="new 0 0 512 512" height="512" viewBox="0 0 512 512" width="512" xmlns="http://www.w3.org/2000/svg"><g><g><path clip-rule="evenodd" d="m59.835 217.286c67.661-111.438 324.523-111.351 392.271-.029 5.548 27.042 12.615 24.005 12.615 42.987l36.415-11.389c-35.977-199.835-454.355-200.04-490.303 0l29.786 18.077c2.688 1.634 1.666-35.804 19.216-49.646z" fill="#e0dfe1" fill-rule="evenodd"/></g><g><path clip-rule="evenodd" d="m0 256.739v38.635c0 4.351 3.533 7.885 7.885 7.885h28.151l27.321-23.565-27.496-30.84h-25.027-2.949c-4.352.001-7.885 3.534-7.885 7.885z" fill="#7e707d" fill-rule="evenodd"/></g><g><path clip-rule="evenodd" d="m59.835 217.286c-16.353 6.717-23.975 12.878-23.975 30.196v1.373 28.181 19.683c0 2.19.058 4.38.175 6.541 3.358 67.108 57.995 110.474 119.32 109.832 49.03-.496 62.872-12.032 78.262-31.189 5.753-7.155 14.075-10.717 22.369-10.688 8.323-.029 16.616 3.534 22.369 10.688 15.389 19.157 29.26 30.692 78.262 31.189 61.324.642 115.991-42.724 119.349-109.832.088-2.161.146-4.351.146-6.541v-19.683-28.181-1.373c0-17.347-7.622-23.479-24.004-30.225h-.029c-7.008-2.891-15.623-5.899-25.931-9.929-87.781-29.028-252.54-29.028-340.321 0-8.617 3.358-17.436 6.425-25.992 9.958z" fill="#a1d4ff" fill-rule="evenodd"/></g><g><path clip-rule="evenodd" d="m66.785 247.891v48.827c0 50.346 38.722 86.002 88.249 85.477 13.813-.146 35.13-.555 46.198-10.455 3.037-2.716 5.753-6.016 8.293-9.199 11.36-14.105 28.355-22.253 46.46-22.253s35.13 8.148 46.461 22.253c2.541 3.183 5.286 6.483 8.323 9.199 11.068 9.9 32.385 10.309 46.168 10.455 49.527.526 88.278-35.131 88.278-85.477v-48.827c-7.008-3.65-23.07-9.053-29.406-11.448-81.737-26.721-237.909-26.721-319.617 0-6.337 2.395-22.428 7.798-29.407 11.448z" fill="#eff6ff" fill-rule="evenodd"/></g><g><path clip-rule="evenodd" d="m476.111 248.855-9.954 27.202s9.895 25.041 9.808 27.202h28.151c4.322 0 7.885-3.534 7.885-7.885v-38.635c0-4.351-3.563-7.885-7.885-7.885h-2.979-25.026z" fill="#7e707d" fill-rule="evenodd"/></g><g><path clip-rule="evenodd" d="m66.785 296.718c0 50.346 38.722 86.002 88.249 85.477 13.813-.146 35.13-.555 46.198-10.455 3.037-2.716 5.753-6.016 8.293-9.199 11.36-14.105 28.355-22.253 46.46-22.253s35.13 8.148 46.461 22.253c2.541 3.183 5.286 6.483 8.323 9.199 11.068 9.9 32.385 10.309 46.168 10.455 49.527.526 88.278-35.131 88.278-85.477v-36.766-12.061c-7.008-3.65-23.07-9.053-29.406-11.448 2.336 52.711 7.914 109.715-58.871 109.014-55.017-.584-38.78-41.906-100.952-41.906s-45.935 41.322-100.952 41.906c-49.527.526-88.249-35.131-88.249-85.506z" fill="#d9eeff" fill-rule="evenodd"/></g><g><path clip-rule="evenodd" d="m445.215 296.718c0 49.032-36.736 84.133-84.423 85.448-9.929 10.542-21.201 20.179-33.641 28.765 8.177 1.314 17.813 2.044 29.465 2.161 61.324.642 115.991-42.724 119.349-109.832.088-2.161.146-4.351.146-6.541v-19.683-20.354-7.826-1.373c0-17.347-7.622-23.479-24.004-30.225h-.029c-7.008-2.891-15.623-5.899-25.931-9.929-10.6-3.504-22.34-6.6-34.897-9.257 5.548 11.126 9.841 22.778 12.732 34.839 4.088 1.11 8.031 2.307 11.827 3.534 6.337 2.395 22.398 7.797 29.406 11.448v12.061z" fill="#86beec" fill-rule="evenodd"/></g></g></svg>