<svg id="Layer_1" enable-background="new 0 0 512 512" height="512" viewBox="0 0 512 512" width="512" xmlns="http://www.w3.org/2000/svg"><g><g><path clip-rule="evenodd" d="m256.003 83.882c33.006 0 75.203-22.587 63.972-76.813-41.731 9.612-84.35 9.76-127.974-.177-11.887 70.886 64.002 76.99 64.002 76.99z" fill="#7e707d" fill-rule="evenodd"/></g><g><path clip-rule="evenodd" d="m505.641 175.63-5.461 220.01-.995 40.086c-.061 2.233-1.888 4.02-4.121 4.02h-55.667c-2.101 0-3.867-1.584-4.101-3.665l-29.337-261.181-.873-7.674h-30.392v132.54l19.693 212.234h-276.764l19.662-212.234v-129.444c0-1.705-1.381-3.096-3.086-3.096h-24.555c-1.573 0-2.893 1.188-3.066 2.741l-.558 4.933-10.12 90.089-19.225 171.093c-.234 2.081-1.99 3.665-4.091 3.665h-55.637c-2.243 0-4.071-1.787-4.121-4.02l-6.466-260.269c-.01-.335.041-.68.142-1.005l36.462-115.943c.162-.508.457-.975.853-1.33l61.088-56.368c.568-.528 1.319-.812 2.09-.812h80.618c2.182 0 3.949 1.705 4.111 3.898 2.152 31.397 30.097 56.286 64.275 56.286 28.818 0 53.211-17.723 61.433-42.116.406-1.188.751-2.406 1.076-3.624.903-3.411 1.492-6.943 1.746-10.547.01-.132.02-.244.041-.355v-.05c.345-1.99 2.02-3.492 4.07-3.492h80.212c1.035 0 2.04.386 2.802 1.096l60.611 55.891c.528.487.924 1.106 1.137 1.797l36.32 115.507c.143.436.204.883.194 1.339z" fill="#a1d4ff" fill-rule="evenodd"/></g><g><path d="m263.725 116.826v395.174h-15.45v-395.174c0-4.263 3.461-7.725 7.725-7.725 4.274.001 7.725 3.462 7.725 7.725z" fill="#86beec"/></g><g><path d="m412.003 170.68c-1.216 2.431-3.534 3.946-6.047 4.224l-.865-7.675h-7.726c0-1.164.268-2.349.824-3.461 8.231-16.462 11.322-33.172 9.457-51.076-.443-4.244 2.637-8.046 6.882-8.489 4.234-.453 8.046 2.637 8.489 6.882 2.183 20.922-1.423 40.413-11.014 59.595z" fill="#86beec"/></g><g><path clip-rule="evenodd" d="m499.186 435.725.995-40.08h-43.713-25.701l4.529 40.436c.234 2.085 1.997 3.662 4.095 3.662h12.7 42.976c2.235 0 4.063-1.783 4.119-4.018z" fill="#eff6ff" fill-rule="evenodd"/></g><g><path clip-rule="evenodd" d="m76.684 436.084 4.556-40.439h-25.967-43.446l.995 40.08c.055 2.235 1.883 4.018 4.119 4.018h42.887 12.762c2.097 0 3.86-1.575 4.094-3.659z" fill="#eff6ff" fill-rule="evenodd"/></g><g><path d="m156.072 113.148c-7.69 12.029-11.316 29.697-11.06 53.998.041 4.265-3.379 7.757-7.644 7.809l-.082 10.477v-15.113c0-1.707-1.384-3.091-3.091-3.091h-4.636c-.278-27.526 4.193-48.017 13.66-62.666 2.376-3.675 7.34-4.665 10.952-2.116 3.404 2.405 4.145 7.191 1.901 10.702z" fill="#86beec"/></g><g><path clip-rule="evenodd" d="m505.64 175.63-5.464 220.01h-29.484l11.59-206.53-33.027-110.58-62.615-57.741h-70.186c.35-.896.69-1.803.979-2.72 1.205-3.534 2.05-7.221 2.544-11.002.134-1.164.247-2.338.319-3.523v-.052c.341-1.988 2.02-3.492 4.07-3.492h80.448c.888 0 1.746.326 2.409.917l60.767 56.07c.529.488.921 1.106 1.137 1.792l36.325 115.513c.135.432.199.884.188 1.338z" fill="#86beec" fill-rule="evenodd"/></g><g><path clip-rule="evenodd" d="m499.186 435.725.995-40.08h-29.487l-1.094 44.099h25.467c2.235-.001 4.063-1.784 4.119-4.019z" fill="#d9eeff" fill-rule="evenodd"/></g><g><path d="m350.682 425.407c-2.704 0-5.328-1.422-6.745-3.948-1.037-1.849-2.035-3.601-2.994-5.284-14.632-25.689-20.689-36.322-17.418-116.732.173-4.265 3.772-7.586 8.034-7.406 4.264.173 7.579 3.77 7.406 8.034-3.09 75.983 1.947 84.825 15.406 108.455.975 1.711 1.989 3.492 3.043 5.372 2.088 3.722.763 8.431-2.958 10.519-1.196.671-2.494.99-3.774.99z" fill="#eff6ff"/></g><g><path clip-rule="evenodd" d="m81.241 395.645 14.67-130.639c-6.921-6.3-13.96-13.694-20.318-22.596l-17.214 153.235z" fill="#86beec" fill-rule="evenodd"/></g><path d="m113.798 163.767c-8.241-16.473-11.322-33.172-9.436-51.066.453-4.244-2.627-8.046-6.871-8.499-4.244-.443-8.046 2.627-8.499 6.871-1.164 11.033-.711 21.665 1.38 32.069l-3.039 10.034c-3.338 11.095-3.966 15.494-5.202 27.155l-6.542 62.079c6.366 8.901 13.392 16.287 20.315 22.581l.01.01 10.106-90.099.556-4.931c.176-1.563 1.498-2.744 3.071-2.744h4.965c0-1.162-.258-2.347-.814-3.46z" fill="#86beec"/><g><path clip-rule="evenodd" d="m76.684 436.084 4.556-40.439h-22.861l-4.939 44.099h6.388 12.762c2.097-.001 3.86-1.576 4.094-3.66z" fill="#d9eeff" fill-rule="evenodd"/></g><g><path clip-rule="evenodd" d="m394.388 511.998-19.697-212.24h-22.833l19.668 212.24z" fill="#86beec" fill-rule="evenodd"/></g><path d="m382.417 167.229c.278-27.506-4.183-48.006-13.629-62.666-2.308-3.585-7.088-4.615-10.673-2.308-.14.091-5.806 4.411-6.256 12.558v184.944h22.832v-132.528z" fill="#86beec"/><g><path d="m299.114 385.36c-2.34 0-4.65-1.065-6.158-3.084-2.539-3.398-1.843-8.21 1.555-10.749 12.128-9.063 28.311-26.376 28.815-71.901.046-4.212 3.477-7.595 7.678-7.595.029 0 .057 0 .087.001 4.242.047 7.642 3.524 7.595 7.765-.436 39.284-11.878 66.771-34.981 84.035-1.379 1.03-2.992 1.528-4.591 1.528z" fill="#eff6ff"/></g><g><path d="m374.691 307.484h-237.404c-4.267 0-7.726-3.459-7.726-7.726s3.459-7.726 7.726-7.726h237.404c4.267 0 7.726 3.459 7.726 7.726s-3.459 7.726-7.726 7.726z" fill="#eff6ff"/></g></g></svg>