<svg id="Layer_1" enable-background="new 0 0 512 512" height="512" viewBox="0 0 512 512" width="512" xmlns="http://www.w3.org/2000/svg"><g><g><path clip-rule="evenodd" d="m213.856 27.654h49.732v93.855h-49.732z" fill="#eff6ff" fill-rule="evenodd"/></g><g><path clip-rule="evenodd" d="m167.246 147.704 71.651 20.412 69.754-20.412.759-27.246c.204-7.096-5.808-12.907-12.929-12.907h-32.892-49.732-32.892c-7.121 0-12.725 5.811-12.929 12.907z" fill="#7e707d" fill-rule="evenodd"/></g><g><path clip-rule="evenodd" d="m309.41 120.459c0-7.096-5.808-12.907-12.929-12.907h-32.892c7.121 0 12.929 5.811 12.929 12.907v27.187h32.892z" fill="#6a5c69" fill-rule="evenodd"/></g><g><path clip-rule="evenodd" d="m263.588 41.613h91.439c9.427 0 10.419-2.803 10.419-11.184v-9.607c0-11.477-9.368-20.822-20.809-20.822h-146.395c-11.441 0-20.809 9.345-20.809 20.821 0 11.447 9.369 20.792 20.809 20.792h15.614z" fill="#a7e9a6" fill-rule="evenodd"/></g><g><path clip-rule="evenodd" d="m365.446 20.821c0-11.476-9.368-20.821-20.809-20.821h-38.934c11.441 0 20.809 9.345 20.809 20.821v9.607c0 8.381-.992 11.184-10.419 11.184h38.934c9.427 0 10.419-2.803 10.419-11.184z" fill="#7fdbae" fill-rule="evenodd"/></g><g><path clip-rule="evenodd" d="m384.213 498.129v-279.405c0-39.102-31.958-71.078-71.038-71.078h-3.765-32.892-108.484-3.765c-39.08 0-71.038 31.976-71.038 71.078v279.405c0 7.622 6.217 13.871 13.863 13.871h263.256c7.617 0 13.863-6.249 13.863-13.871z" fill="#a7e9a6" fill-rule="evenodd"/></g><g><path clip-rule="evenodd" d="m384.213 218.724c0-39.102-31.958-71.078-71.038-71.078h-3.765-29.127c39.08 0 71.038 31.976 71.038 71.078v279.405c0 7.622-6.217 13.871-13.863 13.871h32.892c7.617 0 13.863-6.249 13.863-13.871z" fill="#7fdbae" fill-rule="evenodd"/></g><g><path clip-rule="evenodd" d="m152.712 312.17v106.617c0 11.009 9.018 20.003 19.992 20.003h135.947c11.003 0 19.992-8.994 19.992-20.003v-106.617c0-11.009-8.989-20.003-19.992-20.003h-135.947c-10.974 0-19.992 8.994-19.992 20.003zm49.907 63.894v-25.61c0-2.482 2.043-4.497 4.495-4.497h14.651v-14.659c0-2.453 2.014-4.497 4.495-4.497h25.596c2.452 0 4.495 2.044 4.495 4.497v14.659h14.622c2.481 0 4.495 2.015 4.495 4.497v25.61c0 2.453-2.014 4.497-4.495 4.497h-14.623v14.63c0 2.482-2.043 4.497-4.495 4.497h-25.595c-2.481 0-4.495-2.015-4.495-4.497v-14.63h-14.651c-2.452 0-4.495-2.044-4.495-4.497z" fill="#eff6ff" fill-rule="evenodd"/></g><g><path clip-rule="evenodd" d="m221.765 380.561v14.63c0 2.482 2.014 4.497 4.495 4.497h25.596c2.452 0 4.495-2.015 4.495-4.497v-14.63h14.622c2.481 0 4.495-2.044 4.495-4.497v-25.61c0-2.482-2.014-4.497-4.495-4.497h-14.623v-14.659c0-2.453-2.043-4.497-4.495-4.497h-25.595c-2.481 0-4.495 2.044-4.495 4.497v14.659h-14.651c-2.452 0-4.495 2.015-4.495 4.497v25.61c0 2.453 2.043 4.497 4.495 4.497z" fill="#fe8d94" fill-rule="evenodd"/></g><g><path clip-rule="evenodd" d="m344.082 171.445c0 18.719 10.945 30.253 24.487 34.634 4.115 1.343 8.493 2.015 12.871 2.015 18.65 0 37.329-12.206 37.329-36.649 0-18.806-24.166-51.658-34.293-66.902-2.393-3.592-3.677-3.592-6.071 0-6.975 10.484-20.576 29.29-28.398 46.139-3.561 7.652-5.925 14.894-5.925 20.763z" fill="#eff6ff" fill-rule="evenodd"/></g><g><path clip-rule="evenodd" d="m381.44 208.094c18.65 0 37.329-12.206 37.329-36.649 0-18.806-24.166-51.658-34.293-66.902-2.393-3.592-3.677-3.592-6.071 0-2.539 3.796-5.925 8.673-9.573 14.163 10.332 15.798 21.51 35.101 21.51 47.891 0 21.055-13.834 33.028-29.624 35.948 2.481 1.46 5.107 2.657 7.851 3.533 4.115 1.344 8.493 2.016 12.871 2.016z" fill="#d9eeff" fill-rule="evenodd"/></g><g><path clip-rule="evenodd" d="m298.261 312.17v106.617c0 11.009-8.989 20.003-19.992 20.003h30.382c11.003 0 19.992-8.994 19.992-20.003v-106.617c0-11.009-8.989-20.003-19.992-20.003h-30.382c11.003 0 19.992 8.994 19.992 20.003z" fill="#d9eeff" fill-rule="evenodd"/></g><g><path clip-rule="evenodd" d="m263.588 60.302v-18.689h-49.732v18.689h23.378c9.369 0 7.326 6.833 7.326 16.791v30.458h19.029v-47.249z" fill="#d9eeff" fill-rule="evenodd"/></g><g><path d="m278.59 244.876h-75.795c-4.267 0-7.726-3.459-7.726-7.726s3.459-7.726 7.726-7.726h75.795c4.267 0 7.726 3.459 7.726 7.726s-3.459 7.726-7.726 7.726zm0-33.903h-75.795c-4.267 0-7.726-3.459-7.726-7.726s3.459-7.726 7.726-7.726h75.795c4.267 0 7.726 3.459 7.726 7.726s-3.459 7.726-7.726 7.726z" fill="#eff6ff"/></g></g></svg>